<svg width="24" height="24" viewBox="0 0 24 24" fill="none" xmlns="http://www.w3.org/2000/svg">
<path fill-rule="evenodd" clip-rule="evenodd" d="M12.4903 4.4231C12.1858 4.25187 11.8142 4.25187 11.5097 4.4231L5.50974 7.7981C5.19486 7.97522 5 8.3084 5 8.66968V15.3303C5 15.6916 5.19486 16.0247 5.50974 16.2019L11.5097 19.5769C11.8142 19.7481 12.1858 19.7481 12.4903 19.5769L18.4903 16.2019C18.8051 16.0247 19 15.6916 19 15.3303V8.66968C19 8.3084 18.8051 7.97522 18.4903 7.7981L12.4903 4.4231ZM10.5292 2.67995C11.4425 2.16625 12.5575 2.16625 13.4708 2.67995L19.4708 6.05495C20.4154 6.58631 21 7.58586 21 8.66968V15.3303C21 16.4141 20.4154 17.4137 19.4708 17.945L13.4708 21.32C12.5575 21.8337 11.4425 21.8337 10.5292 21.32L4.52922 17.945C3.58459 17.4137 3 16.4141 3 15.3303V8.66968C3 7.58586 3.58459 6.58631 4.52922 6.05495L10.5292 2.67995Z"/>
<path fill-rule="evenodd" clip-rule="evenodd" d="M12 10C10.8954 10 10 10.8954 10 12C10 13.1046 10.8954 14 12 14C13.1046 14 14 13.1046 14 12C14 10.8954 13.1046 10 12 10ZM8 12C8 9.79086 9.79086 8 12 8C14.2091 8 16 9.79086 16 12C16 14.2091 14.2091 16 12 16C9.79086 16 8 14.2091 8 12Z"/>
</svg>
