<svg width="12" height="12" viewBox="0 0 12 12" fill="none" xmlns="http://www.w3.org/2000/svg"><g clip-path="url(#clip0_3824_14514)"><path fill-rule="evenodd" clip-rule="evenodd" d="M1.88971 2.22409L4.55207 0.771895C4.94988 0.554898 5.27833 0.375738 5.56082 0.248927C5.85585 0.116486 6.13804 0.023299 6.44815 -0.00012207C6.82716 -0.028746 7.20783 0.0260741 7.56335 0.160477C7.85426 0.27045 8.09869 0.439474 8.34436 0.649781C8.57958 0.851146 8.84413 1.1157 9.16455 1.43613L9.91993 2.19152C10.2483 2.23885 10.509 2.3176 10.7386 2.4486C11.1276 2.67043 11.4498 2.99263 11.6716 3.38153C12 3.95732 12 4.72827 12 6.27018V6.97018C12 8.51209 12 9.28304 11.6716 9.85883C11.4498 10.2477 11.1276 10.5699 10.7386 10.7918C10.1629 11.1202 9.39191 11.1202 7.85 11.1202H4.15C2.60809 11.1202 1.83714 11.1202 1.26135 10.7918C0.872447 10.5699 0.550249 10.2477 0.328421 9.85883C0 9.28304 0 8.51209 0 6.97018V6.27018C0 4.72827 0 3.95732 0.328421 3.38153C0.550249 2.99263 0.872447 2.67043 1.26135 2.4486C1.44479 2.34397 1.64804 2.27267 1.88971 2.22409ZM6.53852 1.19647C6.7426 1.18106 6.94758 1.21058 7.13902 1.28295C7.25074 1.32518 7.37474 1.39939 7.56398 1.56138C7.72294 1.69746 7.90576 1.87559 8.1514 2.12028C8.05432 2.12018 7.95391 2.12018 7.85 2.12018H4.58621L5.10649 1.83639C5.52954 1.60564 5.81723 1.44919 6.05226 1.34368C6.27952 1.24166 6.41943 1.20546 6.53852 1.19647ZM2.15278 3.39545C2.17723 3.39286 2.20165 3.38875 2.2259 3.38306C2.28982 3.37323 2.36405 3.3642 2.45064 3.35643C2.84201 3.32131 3.35719 3.32018 4.15 3.32018H7.85C8.64281 3.32018 9.15799 3.32131 9.54936 3.35643C9.92449 3.39009 10.0678 3.44744 10.1441 3.49096C10.3463 3.60631 10.5139 3.77385 10.6292 3.97608C10.6727 4.05238 10.7301 4.19569 10.7638 4.57082C10.795 4.91945 10.7993 5.36633 10.7999 6.02018H8.99999C8.66862 6.02018 8.39999 6.28881 8.39999 6.62018C8.39999 6.95155 8.66862 7.22018 8.99999 7.22018H10.7999C10.7993 7.87403 10.795 8.32091 10.7638 8.66954C10.7301 9.04467 10.6727 9.18797 10.6292 9.26428C10.5139 9.46651 10.3463 9.63405 10.1441 9.7494C10.0678 9.79292 9.92449 9.85027 9.54936 9.88393C9.15799 9.91905 8.64281 9.92018 7.85 9.92018H4.15C3.35719 9.92018 2.84201 9.91905 2.45064 9.88393C2.07551 9.85027 1.9322 9.79292 1.8559 9.7494C1.65367 9.63405 1.48613 9.46651 1.37078 9.26428C1.32726 9.18797 1.26991 9.04467 1.23625 8.66954C1.20113 8.27817 1.2 7.76299 1.2 6.97018V6.27018C1.2 5.47737 1.20113 4.96219 1.23625 4.57082C1.26991 4.19569 1.32726 4.05238 1.37078 3.97608C1.48613 3.77385 1.65367 3.60631 1.8559 3.49096C1.90742 3.46158 1.98947 3.42589 2.15278 3.39545Z"></path></g><defs><clipPath id="clip0_3824_14514"><rect width="12" height="12"></rect></clipPath></defs></svg>